<?xml version="1.0" encoding="UTF-8" standalone="no"?><!DOCTYPE svg PUBLIC "-//W3C//DTD SVG 1.1//EN" "http://www.w3.org/Graphics/SVG/1.1/DTD/svg11.dtd"><!-- Generated by graphviz version 2.40.1 (20161225.0304)
 --><!-- Title: G Pages: 1 --><svg xmlns="http://www.w3.org/2000/svg" xmlns:xlink="http://www.w3.org/1999/xlink" width="566pt" height="206pt" viewBox="0.00 0.00 566.12 205.80">
<g id="graph0" class="graph" transform="scale(1 1) rotate(0) translate(4 201.8)">
<title>G</title>
<polygon fill="#ffffff" stroke="transparent" points="-4,4 -4,-201.8 562.115,-201.8 562.115,4 -4,4"/>
<!-- Main -->
<g id="node1" class="node">
<title>Main</title>
<polygon fill="none" stroke="#000000" points="214.8719,-197.8 137.2431,-197.8 137.2431,-161.8 214.8719,-161.8 214.8719,-197.8"/>
<text text-anchor="middle" x="176.0575" y="-175.6" font-family="Times,serif" font-size="14.00" fill="#000000">Program.fs</text>
</g>
<!-- Input -->
<g id="node2" class="node">
<title>Input</title>
<ellipse fill="none" stroke="#000000" cx="160.0575" cy="-91" rx="31.341" ry="18"/>
<text text-anchor="middle" x="160.0575" y="-86.8" font-family="Times,serif" font-size="14.00" fill="#000000">Input</text>
</g>
<!-- Main&#45;&gt;Input -->
<g id="edge1" class="edge">
<title>Main-&gt;Input</title>
<path fill="none" stroke="#000000" stroke-dasharray="5,2" d="M165.8781,-161.6484C163.2729,-156.0924 160.8351,-149.8476 159.5119,-143.8 157.043,-132.5163 157.1366,-119.5493 157.8684,-109.2894"/>
<text text-anchor="middle" x="174.8303" y="-131.2" font-family="Times,serif" font-size="14.00" fill="#000000">starts</text>
</g>
<!-- BoxOffice -->
<g id="node3" class="node">
<title>BoxOffice</title>
<ellipse fill="none" stroke="#000000" cx="279.0575" cy="-91" rx="51.5843" ry="18"/>
<text text-anchor="middle" x="279.0575" y="-86.8" font-family="Times,serif" font-size="14.00" fill="#000000">BoxOffice</text>
</g>
<!-- Main&#45;&gt;BoxOffice -->
<g id="edge2" class="edge">
<title>Main-&gt;BoxOffice</title>
<path fill="none" stroke="#000000" stroke-dasharray="5,2" d="M197.3992,-161.4006C215.6658,-145.6523 241.748,-123.1659 259.4852,-107.874"/>
<text text-anchor="middle" x="251.8303" y="-131.2" font-family="Times,serif" font-size="14.00" fill="#000000">starts</text>
</g>
<!-- Input&#45;&gt;BoxOffice -->
<g id="edge5" class="edge">
<title>Input-&gt;BoxOffice</title>
<path fill="none" stroke="#000000" d="M191.6669,-91C200.0802,-91 208.4936,-91 216.9069,-91"/>
<polygon fill="#000000" stroke="#000000" points="217.1694,-94.5001 227.1693,-91 217.1693,-87.5001 217.1694,-94.5001"/>
</g>
<!-- TicketSeller1 -->
<g id="node5" class="node">
<title>TicketSeller1</title>
<ellipse fill="none" stroke="#000000" cx="63.0575" cy="-18" rx="63.1151" ry="18"/>
<text text-anchor="middle" x="63.0575" y="-13.8" font-family="Times,serif" font-size="14.00" fill="#000000">TicketSeller1</text>
</g>
<!-- BoxOffice&#45;&gt;TicketSeller1 -->
<g id="edge6" class="edge">
<title>BoxOffice-&gt;TicketSeller1</title>
<path fill="none" stroke="#000000" d="M241.9258,-78.4509C206.5652,-66.5003 153.0578,-48.4168 113.7768,-35.1412"/>
<polygon fill="#000000" stroke="#000000" points="114.7105,-31.7624 104.1163,-31.8763 112.4692,-38.3939 114.7105,-31.7624"/>
</g>
<!-- TicketSeller2 -->
<g id="node6" class="node">
<title>TicketSeller2</title>
<ellipse fill="none" stroke="#000000" cx="207.0575" cy="-18" rx="63.1151" ry="18"/>
<text text-anchor="middle" x="207.0575" y="-13.8" font-family="Times,serif" font-size="14.00" fill="#000000">TicketSeller2</text>
</g>
<!-- BoxOffice&#45;&gt;TicketSeller2 -->
<g id="edge7" class="edge">
<title>BoxOffice-&gt;TicketSeller2</title>
<path fill="none" stroke="#000000" d="M261.9945,-73.7C252.8257,-64.4039 241.3659,-52.7849 231.2886,-42.5676"/>
<polygon fill="#000000" stroke="#000000" points="233.7616,-40.0907 224.2475,-35.4288 228.7778,-45.0062 233.7616,-40.0907"/>
</g>
<!-- TicketSeller3 -->
<g id="node7" class="node">
<title>TicketSeller3</title>
<ellipse fill="none" stroke="#000000" cx="351.0575" cy="-18" rx="63.1151" ry="18"/>
<text text-anchor="middle" x="351.0575" y="-13.8" font-family="Times,serif" font-size="14.00" fill="#000000">TicketSeller3</text>
</g>
<!-- BoxOffice&#45;&gt;TicketSeller3 -->
<g id="edge8" class="edge">
<title>BoxOffice-&gt;TicketSeller3</title>
<path fill="none" stroke="#000000" d="M296.1205,-73.7C305.2893,-64.4039 316.7491,-52.7849 326.8265,-42.5676"/>
<polygon fill="#000000" stroke="#000000" points="329.3372,-45.0062 333.8675,-35.4288 324.3534,-40.0907 329.3372,-45.0062"/>
</g>
<!-- TicketSeller4 -->
<g id="node8" class="node">
<title>TicketSeller4</title>
<ellipse fill="none" stroke="#000000" cx="495.0575" cy="-18" rx="63.1151" ry="18"/>
<text text-anchor="middle" x="495.0575" y="-13.8" font-family="Times,serif" font-size="14.00" fill="#000000">TicketSeller4</text>
</g>
<!-- BoxOffice&#45;&gt;TicketSeller4 -->
<g id="edge9" class="edge">
<title>BoxOffice-&gt;TicketSeller4</title>
<path fill="none" stroke="#000000" d="M316.1892,-78.4509C351.5498,-66.5003 405.0572,-48.4168 444.3382,-35.1412"/>
<polygon fill="#000000" stroke="#000000" points="445.6458,-38.3939 453.9987,-31.8763 443.4045,-31.7624 445.6458,-38.3939"/>
</g>
<!-- User -->
<g id="node4" class="node">
<title>User</title>
<ellipse fill="none" stroke="#000000" cx="268.0575" cy="-179.8" rx="29.6127" ry="18"/>
<text text-anchor="middle" x="268.0575" y="-175.6" font-family="Times,serif" font-size="14.00" fill="#000000">/user</text>
</g>
<!-- User&#45;&gt;Input -->
<g id="edge3" class="edge">
<title>User-&gt;Input</title>
<path fill="none" stroke="#000000" d="M262.8018,-161.9556C258.7084,-150.6991 252.023,-136.5375 242.0575,-127 229.9871,-115.4479 213.6013,-107.2508 198.65,-101.6276"/>
<polygon fill="#000000" stroke="#000000" points="199.6866,-98.2825 189.0918,-98.2947 197.3818,-104.8922 199.6866,-98.2825"/>
</g>
<!-- User&#45;&gt;BoxOffice -->
<g id="edge4" class="edge">
<title>User-&gt;BoxOffice</title>
<path fill="none" stroke="#000000" d="M270.2835,-161.83C271.7943,-149.6338 273.8233,-133.2543 275.5496,-119.3187"/>
<polygon fill="#000000" stroke="#000000" points="279.0411,-119.6025 276.797,-109.2481 272.0942,-118.7419 279.0411,-119.6025"/>
</g>
</g>
</svg>